<svg width="408" height="231" viewBox="0 0 408 231" fill="none" xmlns="http://www.w3.org/2000/svg">
<path d="M240.782 193.308C240.782 190.562 238.771 189.189 234.749 189.189H231.071C229.011 189.189 227.099 189.728 225.333 190.807C223.666 191.886 222.832 193.21 222.832 194.779V227H208.708V180.949H222.832V183.745C225.088 181.881 228.276 180.949 232.395 180.949H237.545C242.351 180.949 246.421 181.93 249.756 183.892C253.189 185.854 254.906 188.502 254.906 191.837V227H240.782V193.308ZM288.756 218.761C292.679 218.761 294.641 217.388 294.641 214.641V193.161C294.641 190.415 292.679 189.041 288.756 189.041H284.489C280.468 189.041 278.457 190.415 278.457 193.161V214.641C278.457 217.388 280.468 218.761 284.489 218.761H288.756ZM264.333 191.837C264.333 188.502 266 185.854 269.335 183.892C272.768 181.832 276.888 180.802 281.694 180.802H291.551C296.259 180.802 300.232 181.783 303.469 183.745C307 185.707 308.765 188.404 308.765 191.837V215.966C308.765 219.398 307 222.096 303.469 224.057C300.232 226.019 296.259 227 291.551 227H281.694C274.141 227 268.845 224.891 265.804 220.674C264.823 219.3 264.333 217.731 264.333 215.966V191.837ZM363.177 227L354.496 201.694L345.816 227H331.545L315.655 180.802H329.779L338.607 206.402L347.434 180.802H361.558L370.239 206.402L379.066 180.802H393.338L377.448 227H363.177Z" fill="#6B88B0"/>
<path d="M47.7196 145.151C47.3344 145.237 46.9398 145.273 46.5455 145.258C45.9497 145.235 45.3644 145.095 44.8229 144.846C44.2814 144.597 43.7944 144.244 43.3896 143.807C42.9848 143.369 42.6702 142.857 42.4637 142.298C42.2573 141.74 42.163 141.146 42.1863 140.55C42.706 127.309 48.2422 114.613 58.2108 103.839C65.6533 95.7789 72.9526 91.6057 73.2598 91.4323C74.3045 90.866 75.5297 90.7314 76.6722 91.0576C77.8147 91.3837 78.7835 92.1445 79.3706 93.1765C79.9576 94.2086 80.1161 95.4297 79.8119 96.5776C79.5078 97.7255 78.7653 98.7087 77.7439 99.316C77.6797 99.3536 71.1856 103.111 64.6887 110.201C56.2112 119.455 51.6949 129.787 51.2616 140.912C51.2203 141.909 50.8508 142.865 50.2104 143.632C49.5701 144.398 48.6946 144.932 47.7196 145.151Z" fill="url(#paint0_linear_2014_293)"/>
<path fill-rule="evenodd" clip-rule="evenodd" d="M93.2397 66L94.4374 73.7006C100.203 110.768 83.9444 130.541 60.6617 134.163L54.8443 135.067L54.7987 134.774L54.562 134.811C54.7117 134.768 54.8611 134.724 55.0102 134.68C54.5719 134.772 54.1174 134.863 53.6496 134.953L54.562 134.811C51.4862 135.694 48.2481 136.282 44.8477 136.578L44.8 136.599V136.634C42.5233 137.128 40.19 141.773 39.3879 147.667C38.5147 154.083 39.7852 159.558 42.2271 159.936L42.2414 159.96C43.1463 159.987 44.0658 160 45 160C54.2 160 63.4667 158.333 72.8 155C82.1333 151.667 90.7333 146.933 98.6 140.8C106.6 134.533 113.067 126.4 118 116.4C123.067 106.267 125.6 94.9333 125.6 82.4C125.6 69.7333 122.667 59 116.8 50.2C110.933 41.2667 102.8 36.8 92.4 36.8C91.1273 36.8 89.8757 36.8456 88.6451 36.9368C86.2816 36.9581 83.2885 37.2826 80.077 37.9206C77.9892 38.3354 76.0374 38.8373 74.3248 39.3805C73.2902 39.6732 72.2158 40.0106 71.1195 40.3909C66.8657 41.8663 63.2678 43.6444 61.2348 45.1618C60.368 45.6273 59.5012 46.1367 58.6407 46.6895C55.3495 48.8037 52.5964 51.2649 50.5573 53.7701C54.3191 34.648 56.2 21.458 56.2 14.2C56.2 9.26666 54.8667 5.66667 52.2 3.4C49.5333 1.13334 45.3333 0 39.6 0C34 0 28.3333 1.2 22.6 3.6C17 6 10.0667 9.66667 1.8 14.6L13 30.6C4.33333 77 0 105.8 0 117C0 122.848 0.582964 128.083 1.74889 132.702L1.74656 132.703L1.84626 133.085L1.84726 133.086C1.81402 132.958 1.78123 132.831 1.74889 132.702L1.76809 132.697C2.04833 134.526 10.478 135.9 20.8182 135.781C30.5777 135.669 38.6051 134.266 39.676 132.566L39.6901 132.246C38.363 127.632 37.1277 121.663 35.9886 114.339C32.6811 93.0739 45.7291 73.3895 65.1331 70.3715C67.2606 70.0406 69.443 70.0627 71.8255 70.0868C77.3118 70.1423 83.8589 70.2085 93.2397 66ZM46.4914 136.055L46.5946 136.044L46.7489 136.026L46.4626 136.071L46.4763 136.063L46.4914 136.055ZM45.2469 136.253L45.1761 136.271L45.2641 136.257L45.2469 136.253ZM39.8526 132.579C39.8354 132.598 39.819 132.617 39.8035 132.637L39.7858 132.576L39.8526 132.579ZM39.8598 128.382L39.8608 128.367L39.8601 128.382L39.8598 128.382ZM39.6935 131.802L39.6927 131.822C39.6979 131.831 39.7028 131.84 39.7076 131.848L39.7081 131.838C39.7031 131.826 39.6982 131.814 39.6935 131.802ZM40.2906 165.713C40.2216 165.741 40.1517 165.767 40.0809 165.79L40.0969 165.912L40.1114 166.026L40.1248 166.132C40.1805 165.993 40.2358 165.853 40.2906 165.713ZM168.652 160C160.785 160 154.985 157.933 151.252 153.8C147.518 149.667 145.652 144.2 145.652 137.4C145.652 130.6 146.985 119.533 149.652 104.2C152.452 88.8667 155.318 74.8667 158.252 62.2L147.852 46.2C161.052 38.7333 173.252 35 184.452 35C195.652 35 201.252 40.0667 201.252 50.2C201.252 56.8667 199.718 63.6667 196.652 70.6L198.652 71.6C212.918 47.2 231.052 35 253.052 35C269.185 35 277.252 43.0667 277.252 59.2C277.252 66.1333 275.252 77.8667 271.252 94.4C267.385 110.933 265.452 123.4 265.452 131.8C265.452 140.2 266.852 146.333 269.652 150.2C262.585 156.733 255.118 160 247.252 160C231.918 160 224.252 151.733 224.252 135.2C224.252 129.067 226.252 118.667 230.252 104C234.252 89.3333 236.252 79.8 236.252 75.4C236.252 69.4 233.985 66.4 229.452 66.4C225.718 66.4 221.452 68.0667 216.652 71.4C211.852 74.6 207.185 79 202.652 84.6C198.252 90.0667 194.518 97.0667 191.452 105.6C188.385 114 186.852 122.6 186.852 131.4C186.852 140.067 188.252 146.333 191.052 150.2C183.985 156.733 176.518 160 168.652 160ZM330.214 150C322.881 155.733 315.881 158.6 309.214 158.6C302.547 158.6 297.547 156.733 294.214 153C290.881 149.267 289.214 144.6 289.214 139C289.214 133.267 291.281 128 295.414 123.2C299.547 118.4 305.414 115.533 313.014 114.6L345.814 79.8C329.281 79.2667 317.881 76.8 311.614 72.4C305.347 68 302.214 61.2667 302.214 52.2C302.214 48.6 302.947 42.5333 304.414 34C313.347 37.7333 323.681 41.1333 335.414 44.2C347.147 47.1333 356.347 48.7333 363.014 49C365.147 44.8667 368.281 41.5333 372.414 39C376.681 36.3333 381.681 35 387.414 35C393.281 35 398.014 36.7333 401.614 40.2C405.214 43.6667 407.014 48.2 407.014 53.8C407.014 63.5333 402.147 70.5333 392.414 74.8L351.014 122.2C359.681 124.867 366.547 126.267 371.614 126.4L398.814 115.8C401.614 123 403.014 129.867 403.014 136.4C403.014 142.8 399.947 148.333 393.814 153C387.681 157.667 380.281 160 371.614 160C362.947 160 353.814 158.333 344.214 155C340.881 153.933 336.214 152.267 330.214 150Z" fill="url(#paint1_linear_2014_293)"/>
<defs>
<linearGradient id="paint0_linear_2014_293" x1="55.9304" y1="95.1424" x2="66.2158" y2="141.003" gradientUnits="userSpaceOnUse">
<stop stop-color="#A4CF01"/>
<stop offset="0.532199" stop-color="#85BF01"/>
<stop offset="1" stop-color="#36AD00"/>
</linearGradient>
<linearGradient id="paint1_linear_2014_293" x1="203.507" y1="0" x2="203.507" y2="166.132" gradientUnits="userSpaceOnUse">
<stop stop-color="#A4CF01"/>
<stop offset="0.532199" stop-color="#85BF01"/>
<stop offset="1" stop-color="#36AD00"/>
</linearGradient>
</defs>
</svg>
