<svg width="25" height="25" viewBox="0 0 25 25" fill="none" xmlns="http://www.w3.org/2000/svg">
<circle cx="12.5" cy="12.5" r="12.25" stroke="#FBFBFB" stroke-width="0.5"/>
<path d="M17.7388 6.15311L14.1787 7.69643L10.6537 6.85467C10.4959 6.81956 10.3381 6.83717 10.1801 6.90727L9.35588 7.3106C9.11036 7.43342 8.95255 7.67895 8.97006 7.94195C8.97006 8.22258 9.12787 8.45047 9.37339 8.5733L11.057 9.34498L8.37381 10.7129L6.14653 9.94122C5.93611 9.87112 5.69058 9.88862 5.49767 9.97633C5.23466 10.0991 5.04173 10.3622 5.00662 10.6428C4.97151 10.9409 5.07672 11.2215 5.30474 11.4145L7.47933 13.2382C7.67224 13.396 7.93527 13.4486 8.18076 13.361L12.3898 11.8177L11.6182 14.3256C11.513 14.6588 11.6182 15.027 11.8812 15.2551C12.039 15.3954 12.2496 15.4655 12.4425 15.4655C12.5653 15.4655 12.7055 15.4304 12.8283 15.3778L13.5123 15.0445C13.6877 14.9568 13.8279 14.8165 13.9156 14.6412L15.8797 10.5199L19.1066 9.01167C19.4925 8.81875 19.7731 8.50315 19.9134 8.09969C20.0537 7.69636 20.0186 7.27543 19.8433 6.88958C19.4575 6.10055 18.5104 5.78481 17.7389 6.15313L17.7388 6.15311Z" fill="#FBFBFB"/>
<path d="M19.0368 16.8687H6.40987C6.16435 16.8687 5.97144 17.0616 5.97144 17.3071C5.97144 17.5526 6.16435 17.7455 6.40987 17.7455H19.0368C19.2824 17.7455 19.4753 17.5526 19.4753 17.3071C19.4753 17.0616 19.2824 16.8687 19.0368 16.8687Z" fill="#FBFBFB"/>
</svg>
