<svg width="102" height="102" viewBox="0 0 102 102" fill="none" xmlns="http://www.w3.org/2000/svg">
<rect x="27.3867" width="79.4811" height="79.4811" rx="10" transform="rotate(20.1549 27.3867 0)" fill="#9F9F9F"/>
<rect x="10.9297" y="10.9287" width="79.4811" height="79.4811" rx="10" fill="white"/>
<rect x="11" y="11" width="79.4811" height="79.4811" rx="10" fill="#D9D9D9"/>
<path d="M68.2391 37.6361H65.4785V35.6902C65.4785 35.3087 65.1695 35 64.7884 35C64.4072 35 64.0982 35.3087 64.0982 35.6902V37.6365L60.0056 37.6362V35.6902C60.0056 35.3087 59.6966 35 59.3155 35C58.9344 35 58.6253 35.3087 58.6253 35.6902V37.6365L54.5257 37.6362V35.6902C54.5257 35.3087 54.2166 35 53.8355 35C53.4544 35 53.1454 35.3087 53.1454 35.6902V37.6365L49.0528 37.6362V35.6902C49.0528 35.3087 48.7438 35 48.3627 35C47.9815 35 47.6725 35.3087 47.6725 35.6902V37.6365L43.5799 37.6362V35.6902C43.5799 35.3088 43.2709 35 42.8898 35C42.5087 35 42.1996 35.3088 42.1996 35.6902V37.6365L39.6529 37.6362C38.9208 37.6362 38.2186 37.927 37.701 38.445C37.1831 38.9626 36.8922 39.6648 36.8922 40.3968V61.7505C31.799 61.0603 30.4738 57.5612 35.8292 55.843H35.8296C36.1934 55.7283 36.3959 55.3407 36.2815 54.9766C36.1672 54.6127 35.7793 54.4103 35.4155 54.5246C28.2447 56.8711 30.5844 62.5304 36.8926 63.1306V63.862H36.8923C36.8923 64.5944 37.1831 65.2966 37.7011 65.8142C38.2187 66.3318 38.9209 66.6227 39.6529 66.6227H68.2394C68.9714 66.6227 69.6736 66.3318 70.1915 65.8142C70.7092 65.2966 71 64.5944 71 63.862V40.3969C71 39.6648 70.7092 38.9626 70.1915 38.445C69.6736 37.9271 68.9714 37.6363 68.2394 37.6363L68.2391 37.6361ZM69.6194 63.8619C69.6194 64.2283 69.474 64.5792 69.2152 64.838C68.9564 65.0968 68.6051 65.2422 68.2391 65.2422H39.6526C39.2866 65.2422 38.9357 65.0968 38.6765 64.838C38.4177 64.5792 38.2723 64.2283 38.2723 63.8619V63.234C41.2677 63.234 44.3111 62.1366 46.0227 60.3354C46.2858 60.059 46.275 59.6218 45.9986 59.3587C45.7223 59.0959 45.2851 59.1066 45.0219 59.383C43.5794 60.9014 40.881 61.8398 38.2723 61.8469V45.3661H69.6194L69.6194 63.8619ZM69.6194 43.9855H38.2723V40.3968C38.2723 40.0307 38.4177 39.6798 38.6765 39.421C38.9357 39.1619 39.2866 39.0165 39.6526 39.0165H42.1994V40.459C42.1994 40.8401 42.5084 41.1491 42.8895 41.1491C43.2707 41.1491 43.5797 40.8401 43.5797 40.459V39.0165H47.6723V40.459C47.6723 40.8401 47.9813 41.1491 48.3624 41.1491C48.7435 41.1491 49.0526 40.8401 49.0526 40.459V39.0165H53.1451V40.459C53.1451 40.8401 53.4542 41.1491 53.8353 41.1491C54.2164 41.1491 54.5254 40.8401 54.5254 40.459V39.0165H58.6251V40.459C58.6251 40.8401 58.9341 41.1491 59.3152 41.1491C59.6964 41.1491 60.0054 40.8401 60.0054 40.459V39.0165H64.098V40.459C64.098 40.8401 64.407 41.1491 64.7881 41.1491C65.1692 41.1491 65.4783 40.8401 65.4783 40.459V39.0165H68.2389C68.6049 39.0165 68.9562 39.1619 69.215 39.421C69.4738 39.6798 69.6192 40.0307 69.6192 40.3968L69.6194 43.9855Z" fill="#3A3A3A"/>
<path d="M43.289 55.574L50.2527 60.4741C50.3159 60.5132 50.3827 60.5455 50.4527 60.5708C50.6055 60.6324 50.7762 60.6324 50.929 60.5708L66.8577 53.5725C67.3596 53.3491 67.7552 52.94 67.961 52.4306C68.1668 51.9213 68.1668 51.352 67.961 50.8427C67.7552 50.3334 67.3596 49.9239 66.8577 49.7008C66.2976 49.4629 65.6647 49.4629 65.1046 49.7008L62.0401 51.0811L52.068 47.7474C51.9081 47.6858 51.731 47.6858 51.5711 47.7474L49.2384 48.7758C48.9963 48.8831 48.8367 49.1194 48.8277 49.384C48.8191 49.6487 48.9624 49.8952 49.1968 50.0181L56.1951 53.6069L50.9845 55.9328L45.9742 53.524C45.7921 53.4411 45.5832 53.4411 45.4011 53.524L43.3929 54.3799C43.168 54.4838 43.0161 54.7001 42.9948 54.9469C42.9732 55.1937 43.0857 55.4327 43.2894 55.5738L43.289 55.574ZM45.6423 54.8838L50.6526 57.2926H50.6529C50.7481 57.3292 50.848 57.3524 50.9496 57.3616L51.2257 57.3064L58.0721 54.2904C58.1556 54.2495 58.2326 54.1959 58.2998 54.1315C58.4498 53.9737 58.5167 53.7543 58.48 53.5396C58.4433 53.3248 58.3075 53.1403 58.1134 53.0411L51.1222 49.473L51.8813 49.1417L61.8266 52.4613V52.4616C61.9973 52.5167 62.1809 52.5167 62.3513 52.4616L65.6228 51.019H65.6225C65.8967 50.8844 66.2248 50.9272 66.4553 51.1275C66.6858 51.3278 66.7736 51.6466 66.6787 51.9369C66.6149 52.1159 66.48 52.2607 66.3059 52.3371L50.729 59.1561L45.0836 55.1532L45.6423 54.8838Z" fill="#3A3A3A"/>
</svg>
