<svg width="102" height="102" viewBox="0 0 102 102" fill="none" xmlns="http://www.w3.org/2000/svg">
<rect x="27.3867" width="79.4811" height="79.4811" rx="10" transform="rotate(20.1549 27.3867 0)" fill="#9F9F9F"/>
<rect x="10.9297" y="10.9287" width="79.4811" height="79.4811" rx="10" fill="white"/>
<rect x="11" y="11" width="79.4811" height="79.4811" rx="10" fill="#D9D9D9"/>
<path d="M50.788 31C44.4429 31 39.2728 36.17 39.2728 42.5152C39.2728 45.9747 40.823 49.0756 43.2501 51.1893C36.5925 54.1398 32 61.3816 32 69.788C32.0004 70.4572 32.5428 71 33.2125 71H68.3643C69.0339 71 69.5763 70.4572 69.5767 69.788C69.5767 61.3814 64.9838 54.1396 58.3266 51.1893C60.7537 49.0756 62.3039 45.9746 62.3039 42.5152C62.3039 36.1696 57.134 31 50.7887 31H50.788ZM50.788 33.4245C55.823 33.4245 59.879 37.48 59.879 42.5155C59.879 45.947 57.9939 48.9228 55.2007 50.4701C55.1961 50.4726 55.1868 50.4671 55.1821 50.4701C55.1758 50.476 55.1694 50.4823 55.1631 50.4887C55.1508 50.4954 55.1373 50.5009 55.1251 50.5077C53.837 51.2057 52.3615 51.6064 50.788 51.6064C49.2145 51.6064 47.7391 51.2056 46.451 50.5077C46.4336 50.4984 46.4112 50.4984 46.3939 50.4887C43.5885 48.9452 41.6971 45.9563 41.6971 42.5154C41.6971 37.48 45.753 33.4245 50.788 33.4245ZM45.731 52.8565C47.2614 53.6107 48.9714 54.0309 50.788 54.0309C52.6047 54.0309 54.3147 53.6107 55.8451 52.8565C61.981 54.7885 66.5996 60.9709 67.0573 68.5763H34.5192C34.9766 60.9709 39.5952 54.7883 45.7314 52.8565H45.731Z" fill="#3A3A3A"/>
</svg>
