<svg width="102" height="102" viewBox="0 0 102 102" fill="none" xmlns="http://www.w3.org/2000/svg">
<rect x="27.3867" width="79.4811" height="79.4811" rx="10" transform="rotate(20.1549 27.3867 0)" fill="#9F9F9F"/>
<rect x="10.9297" y="10.9287" width="79.4811" height="79.4811" rx="10" fill="white"/>
<rect x="11" y="11" width="79.4811" height="79.4811" rx="10" fill="#D9D9D9"/>
<mask id="path-4-inside-1_1917_261" fill="white">
<path d="M67.1915 31.0001C67.637 31.0001 68.0425 31.4055 68.0425 31.8511V70.149C68.0425 70.5946 67.637 71 67.1915 71H34.851C34.4054 71 34 70.5945 34 70.149V39.5107C34 39.0651 34.4055 38.6597 34.851 38.6597H43.3616V31.851C43.3616 31.4054 43.7671 31 44.2126 31L67.1915 31.0001ZM66.3405 32.7021H45.0639V69.2979H52.7234V61.6383C52.7234 61.1927 53.1289 60.7873 53.5744 60.7873H57.8298C58.2753 60.7873 58.6807 61.1928 58.6807 61.6383V69.2979H66.3403L66.3405 32.7021ZM64.6385 33.553C65.084 33.553 65.4895 33.9585 65.4895 34.404V38.6594C65.4895 39.1049 65.084 39.5104 64.6385 39.5104H60.3832C59.9376 39.5104 59.5322 39.1049 59.5322 38.6594V34.404C59.5322 33.9585 59.9377 33.553 60.3832 33.553H64.6385ZM57.8298 33.553C58.2754 33.553 58.6808 33.9585 58.6808 34.404V38.6594C58.6808 39.1049 58.2754 39.5104 57.8298 39.5104H53.5745C53.129 39.5104 52.7235 39.1049 52.7235 38.6594V34.404C52.7235 33.9585 53.129 33.553 53.5745 33.553H57.8298ZM51.0212 33.553C51.4667 33.553 51.8721 33.9585 51.8721 34.404V38.6594C51.8721 39.1049 51.4667 39.5104 51.0212 39.5104H46.7658C46.3203 39.5104 45.9148 39.1049 45.9148 38.6594V34.404C45.9148 33.9585 46.3203 33.553 46.7658 33.553H51.0212ZM63.7871 35.255H61.2338V37.8084H63.7871V35.255ZM56.9785 35.255H54.4251V37.8084H56.9785V35.255ZM50.1698 35.255H47.6164V37.8084H50.1698V35.255ZM64.6379 40.3613C65.0834 40.3613 65.4889 40.7668 65.4889 41.2123V45.4677C65.4889 45.9132 65.0834 46.3186 64.6379 46.3186H60.3826C59.937 46.3186 59.5316 45.9132 59.5316 45.4677V41.2123C59.5316 40.7668 59.937 40.3613 60.3826 40.3613H64.6379ZM57.8292 40.3613C58.2748 40.3613 58.6802 40.7668 58.6802 41.2123V45.4677C58.6802 45.9132 58.2747 46.3186 57.8292 46.3186H53.5739C53.1284 46.3186 52.7229 45.9132 52.7229 45.4677V41.2123C52.7229 40.7668 53.1284 40.3613 53.5739 40.3613H57.8292ZM51.0205 40.3613C51.4661 40.3613 51.8715 40.7668 51.8715 41.2123V45.4677C51.8715 45.9132 51.4661 46.3186 51.0205 46.3186H46.7652C46.3197 46.3186 45.9142 45.9132 45.9142 45.4677V41.2123C45.9142 40.7668 46.3197 40.3613 46.7652 40.3613H51.0205ZM43.361 40.3613H35.7014V69.2976H43.361V40.3613ZM41.659 41.2123C42.1045 41.2123 42.51 41.6178 42.51 42.0633V46.3186C42.51 46.7642 42.1045 47.1696 41.659 47.1696H37.4037C36.9581 47.1696 36.5527 46.7642 36.5527 46.3186V42.0633C36.5527 41.6178 36.9581 41.2123 37.4037 41.2123H41.659ZM63.7867 42.0633H61.2333V44.6167H63.7867V42.0633ZM56.978 42.0633H54.4247V44.6167H56.978V42.0633ZM50.1693 42.0633H47.616V44.6167H50.1693V42.0633ZM40.8076 42.9143H38.2543V45.4677H40.8076V42.9143ZM64.6374 47.1696C65.083 47.1696 65.4884 47.5751 65.4884 48.0206V52.276C65.4884 52.7215 65.083 53.1269 64.6374 53.1269H60.3821C59.9366 53.1269 59.5311 52.7215 59.5311 52.276V48.0206C59.5311 47.5751 59.9366 47.1696 60.3821 47.1696H64.6374ZM57.8288 47.1696C58.2743 47.1696 58.6798 47.5751 58.6798 48.0206V52.276C58.6798 52.7215 58.2743 53.1269 57.8288 53.1269H53.5734C53.1279 53.1269 52.7224 52.7215 52.7224 52.276V48.0206C52.7224 47.5751 53.1279 47.1696 53.5734 47.1696H57.8288ZM51.0201 47.1696C51.4656 47.1696 51.8711 47.5751 51.8711 48.0206V52.276C51.8711 52.7215 51.4656 53.1269 51.0201 53.1269H46.7648C46.3192 53.1269 45.9138 52.7215 45.9138 52.276V48.0206C45.9138 47.5751 46.3192 47.1696 46.7648 47.1696H51.0201ZM41.6584 48.0206C42.1039 48.0206 42.5094 48.4261 42.5094 48.8716V53.1269C42.5094 53.5725 42.1039 53.9779 41.6584 53.9779H37.403C36.9575 53.9779 36.5521 53.5725 36.5521 53.1269V48.8716C36.5521 48.4261 36.9575 48.0206 37.403 48.0206H41.6584ZM63.7861 48.8716H61.2327V51.425H63.7861V48.8716ZM56.9774 48.8716H54.424V51.425H56.9774V48.8716ZM50.1687 48.8716H47.6154V51.425H50.1687V48.8716ZM40.807 49.7226H38.2537V52.276H40.807V49.7226ZM64.6368 53.9779C65.0824 53.9779 65.4878 54.3834 65.4878 54.8289V59.0842C65.4878 59.5298 65.0824 59.9352 64.6368 59.9352H60.3815C59.936 59.9352 59.5305 59.5298 59.5305 59.0842V54.8289C59.5305 54.3834 59.936 53.9779 60.3815 53.9779H64.6368ZM57.8282 53.9779C58.2737 53.9779 58.6791 54.3834 58.6791 54.8289V59.0842C58.6791 59.5298 58.2737 59.9352 57.8282 59.9352H53.5728C53.1273 59.9352 52.7218 59.5298 52.7218 59.0842V54.8289C52.7218 54.3834 53.1273 53.9779 53.5728 53.9779H57.8282ZM51.0195 53.9779C51.465 53.9779 51.8705 54.3834 51.8705 54.8289V59.0842C51.8705 59.5298 51.465 59.9352 51.0195 59.9352H46.7642C46.3186 59.9352 45.9132 59.5298 45.9132 59.0842V54.8289C45.9132 54.3834 46.3186 53.9779 46.7642 53.9779H51.0195ZM41.6578 54.8289C42.1033 54.8289 42.5088 55.2344 42.5088 55.6799V59.9352C42.5088 60.3808 42.1033 60.7862 41.6578 60.7862H37.4024C36.9569 60.7862 36.5514 60.3808 36.5514 59.9352V55.6799C36.5514 55.2344 36.9569 54.8289 37.4024 54.8289H41.6578ZM63.7855 55.6799H61.2321V58.2333H63.7855V55.6799ZM56.9768 55.6799H54.4234V58.2333H56.9768V55.6799ZM50.1681 55.6799H47.6148V58.2333H50.1681V55.6799ZM40.8064 56.5309H38.253V59.0842H40.8064V56.5309ZM41.6574 61.6372C42.1029 61.6372 42.5084 62.0427 42.5084 62.4882V66.7435C42.5084 67.1891 42.1029 67.5945 41.6574 67.5945H37.4021C36.9565 67.5945 36.5511 67.1891 36.5511 66.7435V62.4882C36.5511 62.0427 36.9565 61.6372 37.4021 61.6372H41.6574ZM56.9766 62.4882H54.4232V69.2969H56.9766V62.4882ZM40.8063 63.3392H38.253V65.8925H40.8063V63.3392Z"/>
</mask>
<path d="M67.1915 31.0001C67.637 31.0001 68.0425 31.4055 68.0425 31.8511V70.149C68.0425 70.5946 67.637 71 67.1915 71H34.851C34.4054 71 34 70.5945 34 70.149V39.5107C34 39.0651 34.4055 38.6597 34.851 38.6597H43.3616V31.851C43.3616 31.4054 43.7671 31 44.2126 31L67.1915 31.0001ZM66.3405 32.7021H45.0639V69.2979H52.7234V61.6383C52.7234 61.1927 53.1289 60.7873 53.5744 60.7873H57.8298C58.2753 60.7873 58.6807 61.1928 58.6807 61.6383V69.2979H66.3403L66.3405 32.7021ZM64.6385 33.553C65.084 33.553 65.4895 33.9585 65.4895 34.404V38.6594C65.4895 39.1049 65.084 39.5104 64.6385 39.5104H60.3832C59.9376 39.5104 59.5322 39.1049 59.5322 38.6594V34.404C59.5322 33.9585 59.9377 33.553 60.3832 33.553H64.6385ZM57.8298 33.553C58.2754 33.553 58.6808 33.9585 58.6808 34.404V38.6594C58.6808 39.1049 58.2754 39.5104 57.8298 39.5104H53.5745C53.129 39.5104 52.7235 39.1049 52.7235 38.6594V34.404C52.7235 33.9585 53.129 33.553 53.5745 33.553H57.8298ZM51.0212 33.553C51.4667 33.553 51.8721 33.9585 51.8721 34.404V38.6594C51.8721 39.1049 51.4667 39.5104 51.0212 39.5104H46.7658C46.3203 39.5104 45.9148 39.1049 45.9148 38.6594V34.404C45.9148 33.9585 46.3203 33.553 46.7658 33.553H51.0212ZM63.7871 35.255H61.2338V37.8084H63.7871V35.255ZM56.9785 35.255H54.4251V37.8084H56.9785V35.255ZM50.1698 35.255H47.6164V37.8084H50.1698V35.255ZM64.6379 40.3613C65.0834 40.3613 65.4889 40.7668 65.4889 41.2123V45.4677C65.4889 45.9132 65.0834 46.3186 64.6379 46.3186H60.3826C59.937 46.3186 59.5316 45.9132 59.5316 45.4677V41.2123C59.5316 40.7668 59.937 40.3613 60.3826 40.3613H64.6379ZM57.8292 40.3613C58.2748 40.3613 58.6802 40.7668 58.6802 41.2123V45.4677C58.6802 45.9132 58.2747 46.3186 57.8292 46.3186H53.5739C53.1284 46.3186 52.7229 45.9132 52.7229 45.4677V41.2123C52.7229 40.7668 53.1284 40.3613 53.5739 40.3613H57.8292ZM51.0205 40.3613C51.4661 40.3613 51.8715 40.7668 51.8715 41.2123V45.4677C51.8715 45.9132 51.4661 46.3186 51.0205 46.3186H46.7652C46.3197 46.3186 45.9142 45.9132 45.9142 45.4677V41.2123C45.9142 40.7668 46.3197 40.3613 46.7652 40.3613H51.0205ZM43.361 40.3613H35.7014V69.2976H43.361V40.3613ZM41.659 41.2123C42.1045 41.2123 42.51 41.6178 42.51 42.0633V46.3186C42.51 46.7642 42.1045 47.1696 41.659 47.1696H37.4037C36.9581 47.1696 36.5527 46.7642 36.5527 46.3186V42.0633C36.5527 41.6178 36.9581 41.2123 37.4037 41.2123H41.659ZM63.7867 42.0633H61.2333V44.6167H63.7867V42.0633ZM56.978 42.0633H54.4247V44.6167H56.978V42.0633ZM50.1693 42.0633H47.616V44.6167H50.1693V42.0633ZM40.8076 42.9143H38.2543V45.4677H40.8076V42.9143ZM64.6374 47.1696C65.083 47.1696 65.4884 47.5751 65.4884 48.0206V52.276C65.4884 52.7215 65.083 53.1269 64.6374 53.1269H60.3821C59.9366 53.1269 59.5311 52.7215 59.5311 52.276V48.0206C59.5311 47.5751 59.9366 47.1696 60.3821 47.1696H64.6374ZM57.8288 47.1696C58.2743 47.1696 58.6798 47.5751 58.6798 48.0206V52.276C58.6798 52.7215 58.2743 53.1269 57.8288 53.1269H53.5734C53.1279 53.1269 52.7224 52.7215 52.7224 52.276V48.0206C52.7224 47.5751 53.1279 47.1696 53.5734 47.1696H57.8288ZM51.0201 47.1696C51.4656 47.1696 51.8711 47.5751 51.8711 48.0206V52.276C51.8711 52.7215 51.4656 53.1269 51.0201 53.1269H46.7648C46.3192 53.1269 45.9138 52.7215 45.9138 52.276V48.0206C45.9138 47.5751 46.3192 47.1696 46.7648 47.1696H51.0201ZM41.6584 48.0206C42.1039 48.0206 42.5094 48.4261 42.5094 48.8716V53.1269C42.5094 53.5725 42.1039 53.9779 41.6584 53.9779H37.403C36.9575 53.9779 36.5521 53.5725 36.5521 53.1269V48.8716C36.5521 48.4261 36.9575 48.0206 37.403 48.0206H41.6584ZM63.7861 48.8716H61.2327V51.425H63.7861V48.8716ZM56.9774 48.8716H54.424V51.425H56.9774V48.8716ZM50.1687 48.8716H47.6154V51.425H50.1687V48.8716ZM40.807 49.7226H38.2537V52.276H40.807V49.7226ZM64.6368 53.9779C65.0824 53.9779 65.4878 54.3834 65.4878 54.8289V59.0842C65.4878 59.5298 65.0824 59.9352 64.6368 59.9352H60.3815C59.936 59.9352 59.5305 59.5298 59.5305 59.0842V54.8289C59.5305 54.3834 59.936 53.9779 60.3815 53.9779H64.6368ZM57.8282 53.9779C58.2737 53.9779 58.6791 54.3834 58.6791 54.8289V59.0842C58.6791 59.5298 58.2737 59.9352 57.8282 59.9352H53.5728C53.1273 59.9352 52.7218 59.5298 52.7218 59.0842V54.8289C52.7218 54.3834 53.1273 53.9779 53.5728 53.9779H57.8282ZM51.0195 53.9779C51.465 53.9779 51.8705 54.3834 51.8705 54.8289V59.0842C51.8705 59.5298 51.465 59.9352 51.0195 59.9352H46.7642C46.3186 59.9352 45.9132 59.5298 45.9132 59.0842V54.8289C45.9132 54.3834 46.3186 53.9779 46.7642 53.9779H51.0195ZM41.6578 54.8289C42.1033 54.8289 42.5088 55.2344 42.5088 55.6799V59.9352C42.5088 60.3808 42.1033 60.7862 41.6578 60.7862H37.4024C36.9569 60.7862 36.5514 60.3808 36.5514 59.9352V55.6799C36.5514 55.2344 36.9569 54.8289 37.4024 54.8289H41.6578ZM63.7855 55.6799H61.2321V58.2333H63.7855V55.6799ZM56.9768 55.6799H54.4234V58.2333H56.9768V55.6799ZM50.1681 55.6799H47.6148V58.2333H50.1681V55.6799ZM40.8064 56.5309H38.253V59.0842H40.8064V56.5309ZM41.6574 61.6372C42.1029 61.6372 42.5084 62.0427 42.5084 62.4882V66.7435C42.5084 67.1891 42.1029 67.5945 41.6574 67.5945H37.4021C36.9565 67.5945 36.5511 67.1891 36.5511 66.7435V62.4882C36.5511 62.0427 36.9565 61.6372 37.4021 61.6372H41.6574ZM56.9766 62.4882H54.4232V69.2969H56.9766V62.4882ZM40.8063 63.3392H38.253V65.8925H40.8063V63.3392Z" fill="#3A3A3A" stroke="#E9E9E9" stroke-width="0.5" mask="url(#path-4-inside-1_1917_261)"/>
</svg>
