<svg width="25" height="25" viewBox="0 0 25 25" fill="none" xmlns="http://www.w3.org/2000/svg">
<circle cx="12.5" cy="12.5" r="12.25" stroke="#FBFBFB" stroke-width="0.5"/>
<path fill-rule="evenodd" clip-rule="evenodd" d="M10.6904 14.3344H9.5294V13.1734H10.6904V14.3344ZM12.7802 16.4242V20H14.5913V16.4242H12.7802ZM12.0603 16.4242H10.2724V20H12.0603V16.4242ZM10.6904 12.0123H9.5294V10.8514H10.6904V12.0123ZM10.6904 9.69038H9.5294V8.5294H10.6904V9.69038ZM10.6904 7.36841H9.5294V6.18421H10.6904V7.36841ZM18.8637 5H6V19.9998H9.55254V16.0757C9.55254 15.89 9.71503 15.7274 9.90086 15.7274H14.9394C15.1484 15.7274 15.311 15.8899 15.311 16.0757V19.9998H18.8635V5H18.8637ZM13.0124 12.0124H11.8514V10.8514H13.0124V12.0124ZM15.3344 9.69043H14.1734V8.52945H15.3344V9.69043ZM17.6563 7.36847H16.4954V6.18426H17.6563V7.36847ZM8.36852 9.69043H7.18431V8.52945H8.36852V9.69043ZM8.36852 7.36847H7.18431V6.18426H8.36852V7.36847ZM11.8514 9.69043V8.52945H13.0124V9.69043H11.8514ZM13.0124 7.36847H11.8514V6.18426H13.0124V7.36847ZM15.3344 7.36847H14.1734V6.18426H15.3344V7.36847ZM7.18439 17.7012H8.3686V18.8622H7.18439V17.7012ZM16.4955 18.8622V17.7012H17.6565V18.8622H16.4955ZM16.4955 16.6563V15.4954H17.6565V16.6563H16.4955ZM11.8515 14.3344V13.1734H13.0125V14.3344H11.8515ZM14.1734 12.0124V10.8514H15.3344V12.0124H14.1734ZM17.6563 9.69043H16.4954V8.52945H17.6563V9.69043ZM14.1734 14.3345V13.1735H15.3344V14.3345H14.1734ZM17.6563 12.0125H16.4954V10.8515H17.6563V12.0125ZM17.6563 14.3345H16.4954V13.1735H17.6563V14.3345ZM8.36852 15.4955V16.6564H7.18431V15.4955H8.36852ZM8.36852 12.0126H7.18431V10.8516H8.36852V12.0126ZM8.36852 14.3345H7.18431V13.1735H8.36852V14.3345Z" fill="#FBFBFB"/>
</svg>
