<svg width="25" height="25" viewBox="0 0 25 25" fill="none" xmlns="http://www.w3.org/2000/svg">
<circle cx="12.5" cy="12.5" r="12.25" stroke="#FBFBFB" stroke-width="0.5"/>
<path d="M19.0841 11.5466L16.6963 11.016C16.5547 10.9841 16.3841 10.9561 16.205 10.9289L14.8719 8.795C14.5981 8.35815 13.9531 8 13.4375 8H9.21875C8.70312 8 8.09281 8.37688 7.86219 8.83904L6.875 10.8125H5.9375C5.42188 10.8125 5 11.2344 5 11.75V13.625C5 14.1406 5.42188 14.5625 5.9375 14.5625H6.40625C6.40625 13.2697 7.45813 12.2188 8.75 12.2188C10.0419 12.2188 11.0937 13.2697 11.0937 14.5625H13.9062C13.9062 13.2697 14.9572 12.2188 16.25 12.2188C17.5428 12.2188 18.5938 13.2697 18.5938 14.5625H19.0625C19.5809 14.5625 20 14.1434 20 13.625V12.6875C20 12.1719 19.5885 11.6581 19.0841 11.5466L19.0841 11.5466ZM11.5627 10.8125H8.86079L9.63894 9.25812C9.71019 9.11373 9.99615 8.93752 10.1564 8.93752H11.5627L11.5627 10.8125ZM12.5002 10.8125V8.93752H13.4377C13.6289 8.93752 13.9758 9.13067 14.078 9.2919L15.0267 10.8125H12.5002Z" fill="#FBFBFB"/>
<path d="M8.75 12.6875C7.71497 12.6875 6.875 13.5275 6.875 14.5625C6.875 15.5975 7.71497 16.4375 8.75 16.4375C9.78503 16.4375 10.625 15.5975 10.625 14.5625C10.625 13.5275 9.78503 12.6875 8.75 12.6875ZM8.75 15.5C8.23156 15.5 7.8125 15.0809 7.8125 14.5625C7.8125 14.0441 8.23156 13.625 8.75 13.625C9.26844 13.625 9.6875 14.0441 9.6875 14.5625C9.6875 15.0809 9.26844 15.5 8.75 15.5Z" fill="#FBFBFB"/>
<path d="M16.25 12.6875C15.215 12.6875 14.375 13.5275 14.375 14.5625C14.375 15.5975 15.215 16.4375 16.25 16.4375C17.285 16.4375 18.125 15.5975 18.125 14.5625C18.125 13.5275 17.285 12.6875 16.25 12.6875ZM16.25 15.5C15.7316 15.5 15.3125 15.0809 15.3125 14.5625C15.3125 14.0441 15.7316 13.625 16.25 13.625C16.7684 13.625 17.1875 14.0441 17.1875 14.5625C17.1875 15.0809 16.7684 15.5 16.25 15.5Z" fill="#FBFBFB"/>
</svg>
